<mxfile modified="2022-05-02T20:16:39.062Z" host="app.diagrams.net" agent="5.0 (Windows NT 10.0; Win64; x64) AppleWebKit/537.36 (KHTML, like Gecko) Chrome/100.0.4896.127 Safari/537.36 Edg/100.0.1185.50" etag="q7ZrCab3r0RVz62sMJN-" compressed="false" version="17.5.0" type="google">
  <diagram name="Qualities/Addressed/Security (Cont)" id="EDg8wPknwS5xppUuBg5i">
    <mxGraphModel grid="1" page="1" gridSize="10" guides="1" tooltips="1" connect="1" arrows="1" fold="1" pageScale="1" pageWidth="827" pageHeight="1169" math="0" shadow="0">
      <root>
        <mxCell id="SIwQ03aVbUsqZOwCBq0Q-0" />
        <mxCell id="SIwQ03aVbUsqZOwCBq0Q-8" value="Diagram" parent="SIwQ03aVbUsqZOwCBq0Q-0" />
        <UserObject label="Non-Repudiation" id="SIwQ03aVbUsqZOwCBq0Q-10">
          <mxCell style="strokeColor=#bac8d3;html=1;fontColor=#2f5b7c;fontSize=12;align=left;fillColor=#E6E6E6;" vertex="1" parent="SIwQ03aVbUsqZOwCBq0Q-8">
            <mxGeometry x="140" y="300" width="540" height="20" as="geometry" />
          </mxCell>
        </UserObject>
        <UserObject label="Accountability" id="SIwQ03aVbUsqZOwCBq0Q-11">
          <mxCell style="strokeColor=#bac8d3;html=1;fontColor=#2f5b7c;fontSize=12;align=left;fillColor=#E6E6E6;" vertex="1" parent="SIwQ03aVbUsqZOwCBq0Q-8">
            <mxGeometry x="140" y="400" width="540" height="20" as="geometry" />
          </mxCell>
        </UserObject>
        <UserObject label="Authenticity" id="SIwQ03aVbUsqZOwCBq0Q-12">
          <mxCell style="strokeColor=#bac8d3;html=1;fontColor=#2f5b7c;fontSize=12;align=left;fillColor=#E6E6E6;" vertex="1" parent="SIwQ03aVbUsqZOwCBq0Q-8">
            <mxGeometry x="140" y="500" width="540" height="20" as="geometry" />
          </mxCell>
        </UserObject>
        <UserObject label="Quality" id="SIwQ03aVbUsqZOwCBq0Q-13">
          <mxCell style="strokeColor=#bac8d3;html=1;fontColor=#2f5b7c;fontSize=12;align=left;horizontal=0;fillColor=#E6E6E6;" vertex="1" parent="SIwQ03aVbUsqZOwCBq0Q-8">
            <mxGeometry x="140" y="180" width="20" height="100" as="geometry" />
          </mxCell>
        </UserObject>
        <UserObject label="Feature/Control" id="SIwQ03aVbUsqZOwCBq0Q-14">
          <mxCell style="strokeColor=#bac8d3;html=1;fontColor=#2f5b7c;fontSize=12;align=left;horizontal=0;fontStyle=2" vertex="1" parent="SIwQ03aVbUsqZOwCBq0Q-8">
            <mxGeometry x="160" y="180" width="20" height="100" as="geometry" />
          </mxCell>
        </UserObject>
        <UserObject label="Org T&amp;amp;C Statement is displayed." id="SIwQ03aVbUsqZOwCBq0Q-15">
          <mxCell style="strokeColor=#bac8d3;html=1;fontColor=#2f5b7c;fontSize=11;align=left;fontStyle=2" vertex="1" parent="SIwQ03aVbUsqZOwCBq0Q-8">
            <mxGeometry x="160" y="420" width="520" height="20" as="geometry" />
          </mxCell>
        </UserObject>
        <UserObject label="&lt;font style=&quot;font-size: 11px&quot;&gt;Emails link back to internal, logged, ops.&lt;/font&gt;" id="SIwQ03aVbUsqZOwCBq0Q-16">
          <mxCell style="strokeColor=#bac8d3;html=1;fontColor=#2f5b7c;fontSize=11;align=left;fontStyle=2" vertex="1" parent="SIwQ03aVbUsqZOwCBq0Q-8">
            <mxGeometry x="160" y="320" width="520" height="20" as="geometry" />
          </mxCell>
        </UserObject>
        <UserObject label="2FA should be enabled by external IdPs." id="SIwQ03aVbUsqZOwCBq0Q-19">
          <mxCell style="strokeColor=#bac8d3;html=1;fontColor=#2f5b7c;fontSize=11;align=left;fontStyle=2" vertex="1" parent="SIwQ03aVbUsqZOwCBq0Q-8">
            <mxGeometry x="160" y="520" width="520" height="20" as="geometry" />
          </mxCell>
        </UserObject>
        <UserObject label="EOI score by an ext service if/as required." id="SIwQ03aVbUsqZOwCBq0Q-20">
          <mxCell style="strokeColor=#bac8d3;html=1;fontColor=#2f5b7c;fontSize=11;align=left;fontStyle=2" vertex="1" parent="SIwQ03aVbUsqZOwCBq0Q-8">
            <mxGeometry x="160" y="560" width="520" height="20" as="geometry" />
          </mxCell>
        </UserObject>
        <UserObject label="Group" id="SIwQ03aVbUsqZOwCBq0Q-21">
          <mxCell style="strokeColor=#666666;html=1;fontColor=#333333;fontSize=12;align=left;horizontal=0;fillColor=#f5f5f5;" vertex="1" parent="SIwQ03aVbUsqZOwCBq0Q-8">
            <mxGeometry x="120" y="180" width="20" height="100" as="geometry" />
          </mxCell>
        </UserObject>
        <UserObject label="ISO-25010/Security (Cont)" id="SIwQ03aVbUsqZOwCBq0Q-22">
          <mxCell style="strokeColor=#666666;html=1;fontColor=#333333;fontSize=12;align=left;fontStyle=1;fillColor=#CCCCCC;" vertex="1" parent="SIwQ03aVbUsqZOwCBq0Q-8">
            <mxGeometry x="120" y="280" width="560" height="20" as="geometry" />
          </mxCell>
        </UserObject>
        <UserObject label="&lt;font style=&quot;font-size: 11px&quot;&gt;Client Agent locks after a configurable time.&lt;/font&gt;" id="SIwQ03aVbUsqZOwCBq0Q-29">
          <mxCell style="strokeColor=#bac8d3;html=1;fontColor=#2f5b7c;fontSize=11;align=left;fontStyle=2" vertex="1" parent="SIwQ03aVbUsqZOwCBq0Q-8">
            <mxGeometry x="160" y="360" width="520" height="20" as="geometry" />
          </mxCell>
        </UserObject>
        <UserObject label="All Operations are audited, including Views." id="SIwQ03aVbUsqZOwCBq0Q-30">
          <mxCell style="strokeColor=#bac8d3;html=1;fontColor=#2f5b7c;fontSize=11;align=left;fontStyle=2" vertex="1" parent="SIwQ03aVbUsqZOwCBq0Q-8">
            <mxGeometry x="160" y="460" width="520" height="20" as="geometry" />
          </mxCell>
        </UserObject>
        <UserObject label="Email is not a secure channel. Ever." id="SIwQ03aVbUsqZOwCBq0Q-41">
          <mxCell style="strokeColor=#bac8d3;html=1;fontColor=#2f5b7c;fontSize=11;align=left;fontStyle=2" vertex="1" parent="SIwQ03aVbUsqZOwCBq0Q-8">
            <mxGeometry x="180" y="340" width="500" height="20" as="geometry" />
          </mxCell>
        </UserObject>
        <UserObject label="Without, a user could get their cafe access reused." id="SIwQ03aVbUsqZOwCBq0Q-42">
          <mxCell style="strokeColor=#bac8d3;html=1;fontColor=#2f5b7c;fontSize=11;align=left;fontStyle=2" vertex="1" parent="SIwQ03aVbUsqZOwCBq0Q-8">
            <mxGeometry x="180" y="380" width="500" height="20" as="geometry" />
          </mxCell>
        </UserObject>
        <UserObject label="Without letting people accept responsibility, they wont." id="SIwQ03aVbUsqZOwCBq0Q-43">
          <mxCell style="strokeColor=#bac8d3;html=1;fontColor=#2f5b7c;fontSize=11;align=left;fontStyle=2" vertex="1" parent="SIwQ03aVbUsqZOwCBq0Q-8">
            <mxGeometry x="180" y="440" width="500" height="20" as="geometry" />
          </mxCell>
        </UserObject>
        <UserObject label="Without, you won&#39;t know which users saw something." id="SIwQ03aVbUsqZOwCBq0Q-44">
          <mxCell style="strokeColor=#bac8d3;html=1;fontColor=#2f5b7c;fontSize=11;align=left;fontStyle=2" vertex="1" parent="SIwQ03aVbUsqZOwCBq0Q-8">
            <mxGeometry x="180" y="480" width="500" height="20" as="geometry" />
          </mxCell>
        </UserObject>
        <UserObject label="Check a user by what they &lt;u&gt;know&lt;/u&gt;, and what they &lt;u&gt;have&lt;/u&gt;." id="SIwQ03aVbUsqZOwCBq0Q-45">
          <mxCell style="strokeColor=#bac8d3;html=1;fontColor=#2f5b7c;fontSize=11;align=left;fontStyle=2" vertex="1" parent="SIwQ03aVbUsqZOwCBq0Q-8">
            <mxGeometry x="180" y="540" width="500" height="20" as="geometry" />
          </mxCell>
        </UserObject>
        <UserObject label="Almost no systems actually need EOI. But if they do..." id="SIwQ03aVbUsqZOwCBq0Q-46">
          <mxCell style="strokeColor=#bac8d3;html=1;fontColor=#2f5b7c;fontSize=11;align=left;fontStyle=2" vertex="1" parent="SIwQ03aVbUsqZOwCBq0Q-8">
            <mxGeometry x="180" y="580" width="500" height="20" as="geometry" />
          </mxCell>
        </UserObject>
        <UserObject label="Issue/Control" id="SIwQ03aVbUsqZOwCBq0Q-49">
          <mxCell style="strokeColor=#bac8d3;html=1;fontColor=#2f5b7c;fontSize=12;align=left;horizontal=0;fontStyle=2" vertex="1" parent="SIwQ03aVbUsqZOwCBq0Q-8">
            <mxGeometry x="180" y="180" width="20" height="100" as="geometry" />
          </mxCell>
        </UserObject>
        <UserObject label="Note" id="Tllpq9wOi5hehA9fLNqr-0">
          <mxCell style="strokeColor=#bac8d3;html=1;fontColor=#2f5b7c;fontSize=12;align=left;horizontal=0;fontStyle=2" vertex="1" parent="SIwQ03aVbUsqZOwCBq0Q-8">
            <mxGeometry x="200" y="180" width="20" height="100" as="geometry" />
          </mxCell>
        </UserObject>
        <UserObject label="Infrastructure" id="E2ekcRJTQR5c58Dz-ALW-0">
          <mxCell style="strokeColor=#bac8d3;html=1;fontColor=#2f5b7c;fontSize=12;align=left;horizontal=0;fontStyle=2" vertex="1" parent="SIwQ03aVbUsqZOwCBq0Q-8">
            <mxGeometry x="600" y="180" width="20" height="100" as="geometry" />
          </mxCell>
        </UserObject>
        <UserObject label="Info Svc" id="E2ekcRJTQR5c58Dz-ALW-1">
          <mxCell style="strokeColor=#bac8d3;html=1;fontColor=#2f5b7c;fontSize=12;align=left;horizontal=0;fontStyle=2" vertex="1" parent="SIwQ03aVbUsqZOwCBq0Q-8">
            <mxGeometry x="640" y="180" width="20" height="100" as="geometry" />
          </mxCell>
        </UserObject>
        <UserObject label="Info Svc Client" id="E2ekcRJTQR5c58Dz-ALW-2">
          <mxCell style="strokeColor=#bac8d3;html=1;fontColor=#2f5b7c;fontSize=12;align=left;horizontal=0;fontStyle=2" vertex="1" parent="SIwQ03aVbUsqZOwCBq0Q-8">
            <mxGeometry x="660" y="180" width="20" height="100" as="geometry" />
          </mxCell>
        </UserObject>
        <UserObject label="Delivery Service" id="E2ekcRJTQR5c58Dz-ALW-3">
          <mxCell style="strokeColor=#bac8d3;html=1;fontColor=#2f5b7c;fontSize=12;align=left;horizontal=0;fontStyle=2" vertex="1" parent="SIwQ03aVbUsqZOwCBq0Q-8">
            <mxGeometry x="620" y="180" width="20" height="100" as="geometry" />
          </mxCell>
        </UserObject>
        <mxCell id="E2ekcRJTQR5c58Dz-ALW-4" value="&lt;b&gt;X&lt;/b&gt;" style="text;html=1;strokeColor=#666666;fillColor=#f5f5f5;align=center;verticalAlign=middle;whiteSpace=wrap;rounded=0;fontSize=12;fontColor=#333333;" vertex="1" parent="SIwQ03aVbUsqZOwCBq0Q-8">
          <mxGeometry x="640" y="320" width="20" height="20" as="geometry" />
        </mxCell>
        <UserObject label="Processes" id="E2ekcRJTQR5c58Dz-ALW-5">
          <mxCell style="strokeColor=#bac8d3;html=1;fontColor=#2f5b7c;fontSize=12;align=left;horizontal=0;fontStyle=2" vertex="1" parent="SIwQ03aVbUsqZOwCBq0Q-8">
            <mxGeometry x="580" y="180" width="20" height="100" as="geometry" />
          </mxCell>
        </UserObject>
        <mxCell id="E2ekcRJTQR5c58Dz-ALW-6" value="&lt;b&gt;X&lt;/b&gt;" style="text;html=1;strokeColor=#666666;fillColor=#f5f5f5;align=center;verticalAlign=middle;whiteSpace=wrap;rounded=0;fontSize=12;fontColor=#333333;" vertex="1" parent="SIwQ03aVbUsqZOwCBq0Q-8">
          <mxGeometry x="660" y="360" width="20" height="20" as="geometry" />
        </mxCell>
        <mxCell id="E2ekcRJTQR5c58Dz-ALW-7" value="&lt;b&gt;X&lt;/b&gt;" style="text;html=1;strokeColor=#666666;fillColor=#f5f5f5;align=center;verticalAlign=middle;whiteSpace=wrap;rounded=0;fontSize=12;fontColor=#333333;" vertex="1" parent="SIwQ03aVbUsqZOwCBq0Q-8">
          <mxGeometry x="660" y="420" width="20" height="20" as="geometry" />
        </mxCell>
        <mxCell id="E2ekcRJTQR5c58Dz-ALW-8" value="&lt;b&gt;X&lt;/b&gt;" style="text;html=1;strokeColor=#666666;fillColor=#f5f5f5;align=center;verticalAlign=middle;whiteSpace=wrap;rounded=0;fontSize=12;fontColor=#333333;" vertex="1" parent="SIwQ03aVbUsqZOwCBq0Q-8">
          <mxGeometry x="640" y="460" width="20" height="20" as="geometry" />
        </mxCell>
        <mxCell id="E2ekcRJTQR5c58Dz-ALW-9" value="&lt;b&gt;X&lt;/b&gt;" style="text;html=1;strokeColor=#666666;fillColor=#f5f5f5;align=center;verticalAlign=middle;whiteSpace=wrap;rounded=0;fontSize=12;fontColor=#333333;" vertex="1" parent="SIwQ03aVbUsqZOwCBq0Q-8">
          <mxGeometry x="640" y="520" width="20" height="20" as="geometry" />
        </mxCell>
        <mxCell id="E2ekcRJTQR5c58Dz-ALW-10" value="&lt;b&gt;X&lt;/b&gt;" style="text;html=1;strokeColor=#666666;fillColor=#f5f5f5;align=center;verticalAlign=middle;whiteSpace=wrap;rounded=0;fontSize=12;fontColor=#333333;" vertex="1" parent="SIwQ03aVbUsqZOwCBq0Q-8">
          <mxGeometry x="640" y="560" width="20" height="20" as="geometry" />
        </mxCell>
        <mxCell id="SIwQ03aVbUsqZOwCBq0Q-6" value="Title/Diagram" parent="SIwQ03aVbUsqZOwCBq0Q-0" />
        <mxCell id="SIwQ03aVbUsqZOwCBq0Q-7" value="&lt;font style=&quot;font-size: 12px&quot;&gt;Diagram: Base&amp;nbsp;&lt;i&gt;System&amp;nbsp;&lt;/i&gt;Logical Module -&amp;nbsp;Qualities - ISO-25010 Qualities Addressed - Security (Cont.)&lt;/font&gt;" style="text;strokeColor=none;fillColor=none;html=1;fontSize=12;fontStyle=2;verticalAlign=middle;align=left;shadow=0;glass=0;comic=0;opacity=30;fontColor=#808080;" vertex="1" parent="SIwQ03aVbUsqZOwCBq0Q-6">
          <mxGeometry x="120" y="620" width="520" height="20" as="geometry" />
        </mxCell>
        <mxCell id="SIwQ03aVbUsqZOwCBq0Q-2" value="Title/Page" visible="0" parent="SIwQ03aVbUsqZOwCBq0Q-0" />
        <mxCell id="SIwQ03aVbUsqZOwCBq0Q-3" value="" style="group;fontSize=10;" vertex="1" connectable="0" parent="SIwQ03aVbUsqZOwCBq0Q-2">
          <mxGeometry x="120" y="120" width="560" height="45" as="geometry" />
        </mxCell>
        <mxCell id="SIwQ03aVbUsqZOwCBq0Q-4" value="&lt;font style=&quot;font-size: 12px&quot;&gt;Base Logical Module -&amp;nbsp;Qualities - ISO-25010 Qualities Addressed - Security (Cont)&lt;/font&gt;" style="text;strokeColor=none;fillColor=none;html=1;fontSize=24;fontStyle=1;verticalAlign=middle;align=left;shadow=0;glass=0;comic=0;opacity=30;fontColor=#808080;" vertex="1" parent="SIwQ03aVbUsqZOwCBq0Q-3">
          <mxGeometry width="560" height="40" as="geometry" />
        </mxCell>
        <mxCell id="SIwQ03aVbUsqZOwCBq0Q-5" value="" style="line;strokeWidth=2;html=1;shadow=0;glass=0;comic=0;fillColor=none;fontSize=10;fontColor=#CCCCCC;labelBackgroundColor=none;strokeColor=#CCCCCC;" vertex="1" parent="SIwQ03aVbUsqZOwCBq0Q-3">
          <mxGeometry y="35" width="560" height="10" as="geometry" />
        </mxCell>
        <mxCell id="SIwQ03aVbUsqZOwCBq0Q-1" value="About" parent="SIwQ03aVbUsqZOwCBq0Q-0" />
      </root>
    </mxGraphModel>
  </diagram>
</mxfile>
